<?xml version="1.0" encoding="UTF-8"?>
<svg width="500px" height="460px" viewBox="0 0 500 460" version="1.1" xmlns="http://www.w3.org/2000/svg" xmlns:xlink="http://www.w3.org/1999/xlink">
    <!-- Generator: Sketch 58 (84663) - https://sketch.com -->
    <title>Persistent_Logo/SVG/Vertical_Color1</title>
    <desc>Created with Sketch.</desc>
    <g id="Vertical_Color1" stroke="none" stroke-width="1" fill="none" fill-rule="evenodd">
        <g id="Persistent_Logo_Wordmark" transform="translate(0.000000, 375.000000)" fill="#4D4D4D">
            <path d="M88.095084,24.5131161 C105.186307,24.5131161 117.000672,36.9416876 117.000672,54.6141093 C117.000672,56.5522881 116.885575,58.0341873 116.770478,58.7179337 L75.1324572,58.7179337 C75.706588,65.3306229 81.785062,70.1208855 88.7829577,70.1208855 C94.9765286,70.1208855 98.303508,67.4976144 100.94126,63.2793836 L115.050794,68.8664532 C110.348067,78.1010675 101.171454,83.8025434 88.7829577,83.8025434 C71.1176042,83.8025434 58.7304622,71.6027847 58.7304622,54.1578298 C58.7304622,37.1705003 71.3477981,24.5131161 88.095084,24.5131161 Z M186.903529,24.5135199 C196.654274,24.5135199 205.829533,29.7573703 209.385352,37.6258377 L195.736206,44.8092128 C194.015168,40.5896361 190.229155,37.8533046 186.788432,37.8533046 C183.691647,37.8533046 181.512929,39.4496101 181.512929,41.7296621 C181.512929,43.7822473 183.11887,45.2641465 186.215656,46.0622993 L193.327294,47.8874176 C203.994752,50.6237492 209.729289,56.5526919 209.729289,64.5342198 C209.729289,75.8214193 200.094996,83.8029472 186.903529,83.8029472 C175.661941,83.8029472 166.715521,78.6721572 162.929508,70.0068829 L176.464911,62.5946951 C178.529886,67.2705514 182.774933,70.2343498 187.018626,70.2343498 C190.574445,70.2343498 192.983357,68.6380442 192.983357,65.9017126 C192.983357,63.9635338 191.262319,62.4802887 187.821597,61.6834819 L181.168992,60.0871763 C170.501534,57.5783115 164.994483,51.6493688 164.994483,42.7566277 C164.994483,32.0387682 173.942257,24.5135199 186.903529,24.5135199 Z M264.98274,24.5135199 C274.733484,24.5135199 283.910098,29.7573703 287.465917,37.6258377 L273.815416,44.8092128 C272.095732,40.5896361 268.309719,37.8533046 264.867643,37.8533046 C261.770857,37.8533046 259.592139,39.4496101 259.592139,41.7296621 C259.592139,43.7822473 261.198081,45.2641465 264.294866,46.0622993 L271.406505,47.8874176 C282.075316,50.6237492 287.809854,56.5526919 287.809854,64.5342198 C287.809854,75.8214193 278.174206,83.8029472 264.98274,83.8029472 C253.742505,83.8029472 244.794731,78.6721572 241.010072,70.0068829 L254.545476,62.5946951 C256.610451,67.2705514 260.854144,70.2343498 265.097837,70.2343498 C268.653656,70.2343498 271.062568,68.6380442 271.062568,65.9017126 C271.062568,63.9635338 269.34153,62.4802887 265.900807,61.6834819 L259.248202,60.0871763 C248.580745,57.5783115 243.073693,51.6493688 243.073693,42.7566277 C243.073693,32.0387682 252.021467,24.5135199 264.98274,24.5135199 Z M363.05822,24.5131161 C380.148089,24.5131161 391.962454,36.9416876 391.962454,54.6141093 C391.962454,56.5522881 391.848711,58.0341873 391.733614,58.7179337 L350.095594,58.7179337 C350.669724,65.3306229 356.749552,70.1208855 363.746094,70.1208855 C369.939665,70.1208855 373.266644,67.4976144 375.904396,63.2793836 L390.01393,68.8664532 C385.311204,78.1010675 376.13459,83.8025434 363.746094,83.8025434 C346.08074,83.8025434 333.693599,71.6027847 333.693599,54.1578298 C333.693599,37.1705003 346.310934,24.5131161 363.05822,24.5131161 Z M315.649644,9.46342709 L315.649644,25.9958229 L329.988018,25.9958229 L329.988018,39.6774807 L315.649644,39.6774807 L315.649644,60.3150469 C315.649644,66.358396 318.288749,68.7515084 323.794447,68.7515084 C325.859422,68.7515084 328.151883,68.1821684 329.988018,67.0421424 L329.988018,81.4088926 C327.465363,82.661979 323.67935,83.6875986 318.288749,83.6875986 C306.357933,83.6875986 299.017455,76.3911631 299.017455,63.8495312 L299.017455,39.6774807 L290.987749,39.6774807 L290.987749,25.9958229 L299.017455,25.9958229 L299.017455,9.46342709 L315.649644,9.46342709 Z M484.109222,9.46342709 L484.109222,25.9958229 L498.446242,25.9958229 L498.446242,39.6774807 L484.109222,39.6774807 L484.109222,60.3150469 C484.109222,66.358396 486.746974,68.7515084 492.254025,68.7515084 C494.317646,68.7515084 496.611461,68.1821684 498.446242,67.0421424 L498.446242,81.4088926 C495.923588,82.661979 492.137574,83.6875986 486.746974,83.6875986 C474.817512,83.6875986 467.475679,76.3911631 467.475679,63.8495312 L467.475679,39.6774807 L459.447327,39.6774807 L459.447327,25.9958229 L467.475679,25.9958229 L467.475679,9.46342709 L484.109222,9.46342709 Z M27.3008654,2.50886475 C44.736025,2.50886475 56.7792301,11.8578855 56.7792301,28.2758749 C56.7792301,44.5808039 44.736025,54.0442309 27.3008654,54.0442309 L17.2061843,54.0442309 L17.2061843,82.3201058 L-0.000135408198,82.3201058 L-0.000135408198,2.50886475 L27.3008654,2.50886475 Z M157.939716,24.7413905 C159.20172,24.7413905 160.463725,24.9688573 160.807661,25.0832637 L160.807661,42.1863455 C159.889594,41.7300659 158.283653,41.5025991 156.562614,41.5025991 C147.272258,41.5025991 141.766561,48.342755 141.766561,59.4024877 L141.766561,82.3201058 L125.134372,82.3201058 L125.134372,25.9958229 L141.651464,25.9958229 L141.651464,35.2317832 C144.634506,28.7321545 150.597883,24.7413905 157.939716,24.7413905 Z M234.254828,25.9951499 L234.254828,82.3194328 L217.507542,82.3194328 L217.507542,25.9951499 L234.254828,25.9951499 Z M433.59208,24.5137891 C446.553352,24.5137891 454.469316,33.2921238 454.469316,47.5458136 L454.469316,82.3199712 L437.720676,82.3199712 L437.720676,51.4208252 C437.720676,44.0113292 434.051114,39.7917525 427.512252,39.7917525 C421.088487,39.7917525 416.844794,44.5806693 416.844794,52.4477908 L416.844794,82.3199712 L400.097508,82.3199712 L400.097508,25.9956883 L416.844794,25.9956883 L416.844794,33.1790634 C420.28687,27.7064003 426.021407,24.5137891 433.59208,24.5137891 Z M87.979987,37.5123735 C81.3273823,37.5123735 75.9354278,42.5287571 75.2475542,47.8870138 L100.597323,47.8870138 C99.9094493,41.8450107 94.7476888,37.5123735 87.979987,37.5123735 Z M362.943123,37.5123735 C356.290519,37.5123735 350.898564,42.5287571 350.21069,47.8870138 L375.560459,47.8870138 C374.872586,41.8450107 369.710825,37.5123735 362.943123,37.5123735 Z M27.6434482,17.9012346 L17.2061843,17.9012346 L17.2061843,38.8793279 L27.6434482,38.8793279 C34.5262469,38.8793279 39.4591675,35.0029704 39.4591675,28.3902813 C39.4591675,21.7775921 34.5262469,17.9012346 27.6434482,17.9012346 Z M225.881185,-0.000672978743 C231.271786,-0.000672978743 235.630575,4.44637056 235.630575,9.69022092 C235.630575,14.9354172 231.271786,19.3824608 225.881185,19.3824608 C220.489231,19.3824608 216.131795,14.9354172 216.131795,9.69022092 C216.131795,4.44637056 220.489231,-0.000672978743 225.881185,-0.000672978743 Z" id="Persistent"></path>
        </g>
        <g id="Infinity_Color" transform="translate(86.000000, 0.000000)" fill="#FD5F07">
            <path d="M319.301198,56.3179142 C315.697663,45.3826202 309.918174,35.1974934 302.303026,26.7727588 C294.716928,18.3294487 285.454252,11.5436508 275.278589,6.94976999 C254.910662,-2.34801624 231.006983,-2.27228508 210.854853,6.91118996 C190.648775,15.9917849 174.688089,33.9429281 167.436753,55.1633712 C165.62461,60.4645525 164.347811,65.9557762 163.631254,71.5155866 C162.864897,77.0210991 162.869047,82.859543 162.958963,88.0106909 L163.243926,119.786343 L163.723936,183.340506 L163.895467,215.116158 C163.916217,220.413053 163.858117,225.708519 163.939733,231.003984 C163.968783,233.633142 164.058698,236.345175 164.042098,238.904316 C164.075298,241.462029 163.898234,244.005453 163.848434,246.568882 C163.523355,251.670018 162.960346,256.796875 161.891044,261.859432 C160.854941,266.930562 159.190813,271.881665 157.066042,276.618435 C152.795749,286.080544 146.76173,294.836781 139.153499,301.938363 C123.895537,316.04865 103.007484,323.741793 82.5192091,321.949965 C72.2895964,321.251238 62.2024652,318.322014 53.1306869,313.396631 C44.0395423,308.486965 36.0384497,301.512554 29.6696685,293.233566 C26.4700614,289.104075 23.6536326,284.664514 21.2466649,280.002046 C18.8383139,275.345294 16.8048412,270.465635 15.3952434,265.395934 C12.3464177,255.322261 11.6436938,244.587011 13.0311585,234.367591 C13.7919816,229.247879 14.976099,224.198182 16.5558445,219.332812 C18.2019891,214.484589 20.2382284,209.829266 22.6175298,205.458292 C24.9622483,201.068742 27.7385611,197.012124 30.7597205,193.291295 C33.7310806,189.534743 37.0427362,186.136843 40.6946872,183.247628 C54.9718789,171.303538 73.9108413,166.168108 93.2675649,166.096663 C113.302113,166.12667 133.335277,166.431023 153.373975,166.312426 L153.220427,144.607589 C133.273028,145.047687 113.315946,146.427995 93.3713135,147.932616 C82.2494628,148.779947 71.2617936,151.541991 60.9381155,155.974408 C55.7686682,158.154893 50.8606674,160.948373 46.2044299,164.020486 C41.5703254,167.136895 37.1672345,170.587664 33.2483038,174.537116 C29.2560574,178.402263 25.7548877,182.750374 22.6355129,187.318535 C19.5023049,191.882409 16.764725,196.719202 14.5486548,201.793189 C9.92146687,211.866863 6.95702333,222.650694 5.75768942,233.837473 C4.65103761,245.128561 5.3523782,256.701139 7.92811029,267.929356 C10.5481085,279.154715 15.1960461,290.015706 21.7654079,299.845039 C28.3513695,309.634364 36.9168545,318.427752 47.1589171,325.126388 C57.3843798,331.812163 69.2407707,336.307451 81.3696746,338.130714 C82.8885542,338.413634 84.4032839,338.559381 85.9249301,338.723703 C87.4424264,338.892312 88.965456,339.056635 90.5645678,339.105217 C92.1498465,339.193808 93.7351253,339.253821 95.3176374,339.219528 C96.9056827,339.229319 98.4923448,339.186664 100.07209,339.069495 C106.413205,338.720846 112.714204,337.614885 118.828455,335.830201 C124.946856,334.065522 130.904793,331.672132 136.601283,328.707185 C142.30469,325.743668 147.659502,322.078565 152.697534,317.979081 C162.671233,309.631506 170.877057,299.013426 176.963642,287.220798 C177.747981,285.757614 178.461771,284.25728 179.135446,282.736941 C179.835403,281.226605 180.467578,279.689119 181.055487,278.1302 C182.30877,275.048085 183.324123,271.86309 184.165178,268.643801 C185.899855,262.213797 186.980224,255.64519 187.703697,249.089443 C187.958227,245.802997 188.286073,242.525123 188.378755,239.244392 L188.539219,234.977727 L188.7398,231.003984 L189.479874,215.116158 L190.181214,183.340506 L191.528563,119.786343 L192.177337,88.0106909 L192.242353,84.0383772 L192.263103,83.0881654 L192.301836,82.4237316 L192.368235,81.0934352 C192.481667,79.3258985 192.683631,77.5740795 192.961677,75.8436939 C193.544052,72.3886383 194.342225,68.9878804 195.537409,65.7228671 C197.90841,59.187125 201.633677,53.2029343 206.217982,48.0332108 C210.84932,42.894923 216.508461,38.7339957 222.725077,35.9348005 C228.95276,33.1427498 235.711636,31.7267199 242.617144,31.7138599 C249.514351,31.5981198 256.346543,32.9469918 262.711174,35.7018915 C269.070272,38.4496466 274.94936,42.5991428 279.800645,47.8345951 C284.615963,53.0971965 288.514144,59.3114384 291.002728,66.1472474 C293.506527,72.9601942 294.631162,80.4204281 294.270117,87.9035242 C293.939505,95.3466114 292.146729,102.722541 288.902856,109.509768 C285.641,116.262701 281.037328,122.489803 275.266139,127.366604 C269.514316,132.250549 262.781723,135.922796 255.56912,138.00326 C251.971118,139.076356 248.255535,139.80509 244.465252,140.118017 L243.040438,140.208037 C242.521695,140.235186 242.196616,140.286626 241.477292,140.295199 L237.631677,140.402366 L229.940447,140.613842 L201.293382,141.404018 L200.764955,166.35815 L229.940447,166.755381 L237.631677,166.85969 L241.477292,166.912559 L245.59542,166.873979 C251.149429,166.699655 256.699288,165.929483 262.124649,164.592042 C272.997503,161.972887 283.351614,156.914617 292.243561,149.85733 C301.177008,142.838623 308.48921,133.710875 313.855088,123.552897 C324.615893,103.144063 326.577433,78.2070777 319.301198,56.3179142" id="Swoosh"></path>
        </g>
    </g>
</svg>