<?xml version="1.0" encoding="UTF-8"?>
<svg width="500px" height="112px" viewBox="0 0 500 112" version="1.1" xmlns="http://www.w3.org/2000/svg" xmlns:xlink="http://www.w3.org/1999/xlink">
    <!-- Generator: Sketch 58 (84663) - https://sketch.com -->
    <title>Persistent_Logo/SVG/Horizontal_Color1</title>
    <desc>Created with Sketch.</desc>
    <g id="Horizontal_Color1" stroke="none" stroke-width="1" fill="none" fill-rule="evenodd">
        <g id="Persistent_Logo_Wordmark" transform="translate(148.000000, 27.000000)" fill="#4D4D4D">
            <path d="M131.482618,17.3155741 C138.342057,17.3155741 144.796655,21.019664 147.298097,26.5777002 L137.696216,31.6518089 C136.485503,28.6712335 133.822124,26.7383755 131.40165,26.7383755 C129.223128,26.7383755 127.690446,27.8659552 127.690446,29.4765118 C127.690446,30.9263929 128.820191,31.9731596 130.998714,32.5369494 L136.001598,33.8261552 C143.505926,35.7590132 147.54005,39.9470306 147.54005,45.5849291 C147.54005,53.5578494 140.762531,59.1957479 131.482618,59.1957479 C123.574402,59.1957479 117.280788,55.5715204 114.617409,49.450645 L124.139274,44.2149103 C125.59194,47.5177871 128.578239,49.6113204 131.563586,49.6113204 C134.065029,49.6113204 135.759646,48.4837407 135.759646,46.5508827 C135.759646,45.1818146 134.548933,44.1340972 132.128459,43.5712581 L127.448494,42.4436784 C119.944167,40.6714958 116.070074,36.4834784 116.070074,30.2019277 C116.070074,22.6311712 122.364641,17.3155741 131.482618,17.3155741 Z M186.409665,17.3155741 C193.269104,17.3155741 199.724655,21.019664 202.226097,26.5777002 L192.623263,31.6518089 C191.413503,28.6712335 188.750124,26.7383755 186.328697,26.7383755 C184.150175,26.7383755 182.617494,27.8659552 182.617494,29.4765118 C182.617494,30.9263929 183.747239,31.9731596 185.925761,32.5369494 L190.928646,33.8261552 C198.433926,35.7590132 202.468049,39.9470306 202.468049,45.5849291 C202.468049,53.5578494 195.689579,59.1957479 186.409665,59.1957479 C178.502402,59.1957479 172.207835,55.5715204 169.545409,49.450645 L179.067274,44.2149103 C180.51994,47.5177871 183.505287,49.6113204 186.490633,49.6113204 C188.992076,49.6113204 190.686694,48.4837407 190.686694,46.5508827 C190.686694,45.1818146 189.47598,44.1340972 187.055506,43.5712581 L182.375541,42.4436784 C174.871214,40.6714958 170.997122,36.4834784 170.997122,30.2019277 C170.997122,22.6311712 177.291688,17.3155741 186.409665,17.3155741 Z M61.9729992,17.3152889 C73.9963072,17.3152889 82.3074594,26.0944382 82.3074594,38.5776772 C82.3074594,39.9467453 82.2264912,40.993512 82.1455229,41.4764888 L52.8540697,41.4764888 C53.2579584,46.147483 57.5340342,49.5311729 62.4569035,49.5311729 C66.8139476,49.5311729 69.1544062,47.6781772 71.0100079,44.6985526 L80.9357621,48.6450816 C77.6274949,55.1681206 71.1719443,59.1954627 62.4569035,59.1954627 C50.0297068,59.1954627 41.3156186,50.5779395 41.3156186,38.2553758 C41.3156186,26.2560643 50.1916433,17.3152889 61.9729992,17.3152889 Z M255.403659,17.3152889 C267.426014,17.3152889 275.737167,26.0944382 275.737167,38.5776772 C275.737167,39.9467453 275.657151,40.993512 275.576183,41.4764888 L246.284729,41.4764888 C246.688618,46.147483 250.965647,49.5311729 255.887563,49.5311729 C260.244607,49.5311729 262.585066,47.6781772 264.440668,44.6985526 L274.366422,48.6450816 C271.058155,55.1681206 264.602604,59.1954627 255.887563,59.1954627 C243.460367,59.1954627 234.746278,50.5779395 234.746278,38.2553758 C234.746278,26.2560643 243.622303,17.3152889 255.403659,17.3152889 Z M222.052744,6.68466519 L222.052744,18.362626 L232.139482,18.362626 L232.139482,28.0269158 L222.052744,28.0269158 L222.052744,42.604639 C222.052744,46.8734694 223.909298,48.5638882 227.782438,48.5638882 C229.235103,48.5638882 230.8478,48.1617244 232.139482,47.3564462 L232.139482,57.5046636 C230.364848,58.3898041 227.701469,59.1142693 223.909298,59.1142693 C215.516225,59.1142693 210.352356,53.9602983 210.352356,45.1012868 L210.352356,28.0269158 L204.70363,28.0269158 L204.70363,18.362626 L210.352356,18.362626 L210.352356,6.68466519 L222.052744,6.68466519 Z M340.560439,6.68466519 L340.560439,18.362626 L350.646224,18.362626 L350.646224,28.0269158 L340.560439,28.0269158 L340.560439,42.604639 C340.560439,46.8734694 342.41604,48.5638882 346.290133,48.5638882 C347.741846,48.5638882 349.355495,48.1617244 350.646224,47.3564462 L350.646224,57.5046636 C348.871591,58.3898041 346.208212,59.1142693 342.41604,59.1142693 C334.02392,59.1142693 328.859098,53.9602983 328.859098,45.1012868 L328.859098,28.0269158 L323.211325,28.0269158 L323.211325,18.362626 L328.859098,18.362626 L328.859098,6.68466519 L340.560439,6.68466519 Z M19.2055724,1.77218261 C31.4708326,1.77218261 39.9429687,8.37603475 39.9429687,19.9731825 C39.9429687,31.490468 31.4708326,38.1751332 19.2055724,38.1751332 L12.104181,38.1751332 L12.104181,58.1483157 L-9.52567584e-05,58.1483157 L-9.52567584e-05,1.77218261 L19.2055724,1.77218261 Z M111.107197,17.4765347 C111.99499,17.4765347 112.882783,17.6372101 113.124735,17.7180231 L113.124735,29.7990984 C112.478895,29.476797 111.349149,29.3161216 110.138436,29.3161216 C103.60287,29.3161216 99.72973,34.1477912 99.72973,41.9600361 L99.72973,58.1483157 L88.0293424,58.1483157 L88.0293424,18.362626 L99.6487618,18.362626 L99.6487618,24.8866159 C101.747268,20.295484 105.942376,17.4765347 111.107197,17.4765347 Z M164.793239,18.3621506 L164.793239,58.1478403 L153.011884,58.1478403 L153.011884,18.3621506 L164.793239,18.3621506 Z M305.022714,17.3157643 C314.140691,17.3157643 319.709401,23.5165019 319.709401,33.584857 L319.709401,58.1482206 L307.927092,58.1482206 L307.927092,36.3220425 C307.927092,31.0882092 305.345634,28.1076338 300.745685,28.1076338 C296.226705,28.1076338 293.241358,31.4903729 293.241358,37.0474584 L293.241358,58.1482206 L281.460002,58.1482206 L281.460002,18.3625309 L293.241358,18.3625309 L293.241358,23.4366396 C295.662785,19.5709237 299.696909,17.3157643 305.022714,17.3157643 Z M61.8920309,26.4975527 C57.2120664,26.4975527 53.4189423,30.0409671 52.935038,33.82587 L70.7680557,33.82587 C70.2841514,29.5579903 66.6529637,26.4975527 61.8920309,26.4975527 Z M255.322691,26.4975527 C250.642726,26.4975527 246.849602,30.0409671 246.365698,33.82587 L264.198715,33.82587 C263.714811,29.5579903 260.083623,26.4975527 255.322691,26.4975527 Z M19.446572,12.6448652 L12.104181,12.6448652 L12.104181,27.463126 L19.446572,27.463126 C24.288473,27.463126 27.7586767,24.7249898 27.7586767,20.0539956 C27.7586767,15.3830014 24.288473,12.6448652 19.446572,12.6448652 Z M158.902562,-0.000475370871 C162.694733,-0.000475370871 165.761048,3.14077535 165.761048,6.84486517 C165.761048,10.5499057 162.694733,13.6911565 158.902562,13.6911565 C155.109437,13.6911565 152.044075,10.5499057 152.044075,6.84486517 C152.044075,3.14077535 155.109437,-0.000475370871 158.902562,-0.000475370871 Z" id="Persistent"></path>
        </g>
        <g id="Infinity_Color" fill="#FD5F07">
            <path d="M105.106731,18.6013711 C103.920529,14.9895281 102.018052,11.6254596 99.5113175,8.84283498 C97.0141456,6.05407502 93.9650823,3.81277851 90.6154841,2.29545523 C83.9108234,-0.775531586 76.042273,-0.75051817 69.4086478,2.28271254 C62.7572638,5.28196276 57.5033671,11.2110864 55.1163913,18.2200344 C54.519875,19.9709736 54.0995815,21.7846823 53.8637071,23.6210446 C53.6114399,25.4394728 53.612806,27.3678656 53.6424041,29.0692499 L53.7362075,39.5645019 L53.894216,60.5559498 L53.9506801,71.0512018 C53.9575104,72.8007251 53.9383855,74.5497764 53.9652515,76.2988278 C53.974814,77.1672181 54.0044121,78.0629815 53.9989478,78.9082462 C54.0098764,79.753039 53.9515908,80.5931122 53.935198,81.4397928 C53.8281894,83.1246587 53.6428595,84.8180198 53.2908694,86.4901431 C52.9498078,88.1650981 52.4020146,89.8004092 51.7025879,91.3649276 C50.2969041,94.4901889 48.3106416,97.3823061 45.806184,99.7279039 C40.7836081,104.388423 33.9077336,106.929408 27.1634569,106.337581 C23.7960998,106.106797 20.4756444,105.139297 17.4894202,103.512481 C14.4968211,101.890856 11.8630424,99.5872624 9.76658368,96.8527768 C8.71334542,95.4888377 7.78624075,94.0224852 6.99392144,92.4825082 C6.20114677,90.9444191 5.53177355,89.3327055 5.06776586,87.6582225 C4.0641614,84.3309662 3.83284058,80.7851964 4.28956258,77.409801 C4.54000834,75.7187997 4.92979302,74.0509239 5.44980949,72.4439299 C5.99168304,70.8425993 6.66196697,69.3049821 7.44517916,67.8612832 C8.21700746,66.411449 9.13090681,65.0715794 10.1254042,63.8426183 C11.1035087,62.6018585 12.1936308,61.4795584 13.3957704,60.5252729 C18.095499,56.5802324 24.329777,54.8840396 30.7015725,54.860442 C37.2964924,54.870353 43.8909569,54.9708786 50.4872429,54.9317067 L50.4366984,47.7627671 C43.8704659,47.9081281 37.301046,48.364033 30.7357242,48.8609977 C27.0746625,49.1408648 23.4577704,50.0531466 20.0594491,51.5171393 C18.357784,52.237337 16.7421811,53.1600017 15.2094531,54.1746969 C13.6840107,55.2040225 12.2346128,56.3437848 10.9445895,57.6482581 C9.63043226,58.9248862 8.47792641,60.3610339 7.45109879,61.8698621 C6.41971761,63.3772744 5.51856823,64.9748294 4.78908803,66.6507283 C3.26592245,69.9779846 2.2900947,73.5398007 1.89530111,77.2347071 C1.53101637,80.9640659 1.76188182,84.7863991 2.60975456,88.4949921 C3.47219869,92.2026411 5.00219461,95.7899426 7.16467991,99.0364953 C9.33262949,102.269833 12.1521934,105.174221 15.5236487,107.386729 C18.8896397,109.594989 22.7924954,111.079747 26.7850561,111.681957 C27.285037,111.775404 27.7836517,111.823543 28.2845432,111.877817 C28.7840687,111.933507 29.2854155,111.987782 29.811807,112.003828 C30.3336449,112.033089 30.8554828,112.052911 31.37641,112.041584 C31.8991586,112.044818 32.4214518,112.030729 32.9414683,111.992029 C35.0288199,111.876873 37.1029661,111.511583 39.1156393,110.922116 C41.1296786,110.339256 43.0908966,109.548738 44.9660523,108.569439 C46.8434848,107.590612 48.6061676,106.380057 50.2645739,105.026029 C53.5476901,102.268889 56.2488615,98.7618197 58.2524276,94.866806 C58.5106144,94.3835279 58.745578,93.8879791 58.9673364,93.3858229 C59.1977465,92.8869704 59.4058441,92.3791509 59.5993704,91.8642521 C60.0119229,90.8462532 60.3461541,89.7942739 60.6230105,88.7309677 C61.1940269,86.6071871 61.5496598,84.4376271 61.787811,82.2723148 C61.8715965,81.1868269 61.9795158,80.1041707 62.0100247,79.0205706 L62.062846,77.6113242 L62.1288726,76.2988278 L62.372488,71.0512018 L62.6033535,60.5559498 L63.0468701,39.5645019 L63.2604321,29.0692499 L63.2818338,27.7572254 L63.2886641,27.4433778 L63.3014141,27.2239205 L63.3232712,26.7845339 C63.3606104,26.2007302 63.4270923,25.6221179 63.5186189,25.050585 C63.7103237,23.9094068 63.9730641,22.7861628 64.3664916,21.7077542 C65.1469717,19.5490492 66.3732452,17.5725173 67.8822947,15.8649977 C69.4068264,14.167861 71.2696875,12.7935389 73.316057,11.8689864 C75.3660694,10.9467937 77.5909385,10.47909 79.8640753,10.4748424 C82.1344799,10.4366144 84.3834829,10.8821363 86.4785755,11.7920584 C88.5718467,12.6996206 90.5071094,14.0701671 92.1040426,15.7993965 C93.6891366,17.5375929 94.9723296,19.5901089 95.7915149,21.8479237 C96.6157092,24.0981873 96.9859135,26.5622448 96.8670656,29.0338535 C96.7582356,31.4922476 96.1680943,33.92846 95.1002846,36.1702285 C94.0265554,38.4006701 92.5111308,40.4574337 90.6113859,42.0682033 C88.7180159,43.6813327 86.5017986,44.8942474 84.1275728,45.5814084 C82.9431921,45.9358438 81.720106,46.176539 80.4724308,46.2798963 L80.0034142,46.3096292 C79.8326557,46.3185963 79.7256471,46.3355865 79.488862,46.3384182 L78.2229725,46.3738146 L75.6911935,46.4436634 L66.2612276,46.7046524 L66.0872817,54.9468091 L75.6911935,55.0780116 L78.2229725,55.112464 L79.488862,55.1299262 L80.8444566,55.1171835 C82.6727106,55.0596055 84.4995986,54.8052237 86.2855046,54.3634774 C89.8646022,53.4983907 93.2729413,51.8276833 96.1999692,49.496716 C99.1406578,47.1784915 101.547669,44.1636669 103.313995,40.8085654 C106.856209,34.0676856 107.501903,25.8311923 105.106731,18.6013711" id="Swoosh"></path>
        </g>
    </g>
</svg>